<?xml version="1.0" encoding="UTF-8" standalone="no"?>
<svg
   width="923.84802pt"
   height="189.91125pt"
   viewBox="0 0 923.84802 189.91125"
   version="1.1"
   id="svg23"
   sodipodi:docname="235559445.svg"
   xmlns:inkscape="http://www.inkscape.org/namespaces/inkscape"
   xmlns:sodipodi="http://sodipodi.sourceforge.net/DTD/sodipodi-0.dtd"
   xmlns="http://www.w3.org/2000/svg"
   xmlns:svg="http://www.w3.org/2000/svg">
  <defs
     id="defs23" />
  <sodipodi:namedview
     id="namedview23"
     pagecolor="#505050"
     bordercolor="#eeeeee"
     borderopacity="1"
     inkscape:showpageshadow="0"
     inkscape:pageopacity="0"
     inkscape:pagecheckerboard="0"
     inkscape:deskcolor="#505050"
     inkscape:document-units="pt">
    <inkscape:page
       x="0"
       y="-1.2563155e-20"
       width="923.84802"
       height="189.91125"
       id="page2"
       margin="0"
       bleed="0" />
  </sodipodi:namedview>
  <g
     id="#f36f10ff"
     style="display:inline"
     transform="translate(-198.15405,-405.07873)">
    <path
       fill="#f36f10"
       opacity="1"
       d="m 198.28,405.28 c 16.79,-1.2 33.71,3.01 48.22,11.45 11.29,6.13 20.96,14.73 30.33,23.4 4.97,5.71 10.53,10.88 15.27,16.79 12.95,15.27 24.41,31.7 36.42,47.69 0.12,0.26 0.35,0.77 0.47,1.02 -10.03,10.21 -20.16,20.34 -30.37,30.37 -23.52,-17.03 -47.58,-33.81 -67.75,-54.88 -11.16,-11.3 -20.59,-24.51 -26.73,-39.19 -4.79,-11.57 -6.49,-24.2 -5.86,-36.65 m 9.94,9.95 c -0.2,18.39 9.11,35.24 20.5,49.07 8.62,10.05 18.47,18.96 28.41,27.67 10.6,-7.75 19.64,-17.66 28.11,-27.72 -10.21,-11.23 -20.25,-22.83 -32.36,-32.1 -12.76,-9.84 -28.25,-17.13 -44.66,-16.92 m 56.69,82.81 c 10.57,8.87 21.62,17.19 32.73,25.37 6.23,-6.34 12.54,-12.6 18.85,-18.86 -8.13,-11.16 -16.67,-22.01 -25.33,-32.75 -7.99,9.47 -16.76,18.27 -26.25,26.24 z"
       id="path9"
       style="fill:#e8672a;fill-opacity:1" />
    <path
       fill="#f36f10"
       opacity="1"
       d="m 237.34,433.39 c 5.56,-2.05 12.08,-0.82 16.72,2.8 7.14,5.78 8.76,17.35 2.79,24.53 -6.75,9.54 -23.46,8.93 -28.87,-1.69 -5.85,-9.03 -1.21,-22.73 9.36,-25.64 m -1.82,12.86 c -0.72,3.18 -0.94,7.01 1.82,9.32 3.78,4.23 11.44,2.58 13.14,-2.84 2.32,-5.29 -2.91,-11.9 -8.6,-10.64 -2.79,0.03 -4.65,2.28 -6.36,4.16 z"
       id="path10"
       style="display:inline;fill:#e8672a;fill-opacity:1" />
    <path
       fill="#f36f10"
       opacity="1"
       d="m 314.76,447 c -2.04,-5.75 4.2,-12.33 10.04,-10.74 2.4,0.58 4.32,2.25 6.09,3.89 9.53,9.48 18.94,19.07 28.55,28.47 -4.2,4.07 -8.29,8.26 -12.44,12.38 -1.96,-1.95 -3.91,-3.91 -5.85,-5.86 -5.92,5.87 -11.79,11.8 -17.72,17.68 -6.21,-7.86 -12.13,-15.95 -18.47,-23.72 6.15,-3.91 12.52,-7.45 18.68,-11.35 -3.08,-3.46 -7.1,-6.33 -8.88,-10.75 z"
       id="path11"
       style="fill:#e8672a;fill-opacity:1" />
    <path
       fill="#f36f10"
       opacity="1"
       d="m 358.12,478.14 c 4.89,-2.08 9.7,1.35 13.34,4.33 7.93,7.4 12.48,17.51 16.78,27.28 -8.08,-3.06 -15.99,-6.91 -22.75,-12.35 -4.04,-3.71 -8.51,-7.73 -9.53,-13.39 -0.25,-2.07 -0.14,-5.02 2.16,-5.87 z"
       id="path12"
       style="fill:#e8672a;fill-opacity:1" />
    <path
       fill="#f36f10"
       opacity="1"
       d="m 250.72,530.79 c 3.69,-6.28 7.63,-12.42 11.09,-18.83 8.21,5.95 16.05,12.39 24.15,18.5 -6.07,5.76 -11.88,11.79 -17.82,17.69 1.96,1.94 3.91,3.89 5.86,5.85 -4.08,3.94 -7.88,8.16 -12.1,11.94 l -0.55,-0.01 c -8.06,-7.68 -15.77,-15.74 -23.7,-23.55 -2.91,-3 -6.29,-5.73 -8.18,-9.53 -2.27,-6.02 4.39,-13.47 10.63,-11.13 4.47,1.73 7.23,5.91 10.62,9.07 z"
       id="path13"
       style="fill:#e8672a;fill-opacity:1" />
    <path
       fill="#f36f10"
       opacity="1"
       d="m 270.48,566.79 c 0.43,-3.42 4.63,-4.68 7.51,-3.72 5.04,1.26 8.54,5.36 11.99,8.95 5.95,6.61 9.15,15.05 12.91,22.97 -9.58,-3.53 -18.98,-8.29 -26.38,-15.44 -3.1,-3.54 -6.26,-7.83 -6.03,-12.76 z"
       id="path14"
       style="fill:#e8672a;fill-opacity:1" />
  </g>
  <g
     id="#ffffffff"
     transform="translate(-198.15405,-405.07873)">
    <path
       fill="#ffffff"
       opacity="1"
       d="m 523.84,432.55 c 9.78,-0.09 19.56,-0.08 29.35,-0.01 8.17,45.58 16.47,91.14 24.68,136.71 -9.18,0 -18.37,0 -27.56,0 -0.81,-5.67 -1.63,-11.34 -2.45,-17 -6.23,0 -12.46,0 -18.69,0 -0.81,5.66 -1.64,11.33 -2.45,17 -9.19,0 -18.38,0 -27.56,0 8.2,-45.57 16.53,-91.12 24.68,-136.7 m 14.71,49.5 c -2.03,16.16 -4.23,32.3 -6.36,48.45 4.21,0 8.43,0 12.65,0 -2.13,-16.15 -4.06,-32.32 -6.29,-48.45 z"
       id="path15"
       style="fill:#8da4ba;fill-opacity:1" />
    <path
       fill="#ffffff"
       opacity="1"
       d="m 437.8,432.5 c 9.37,-0.01 18.75,0 28.12,0 0.02,37.08 0,74.16 0.01,111.25 9.18,0 18.37,0 27.56,0 -1.58,8.5 -3.15,17 -4.74,25.5 -16.99,0 -33.97,0 -50.95,0 -0.01,-45.58 -0.01,-91.17 0,-136.75 z"
       id="path16"
       style="fill:#8da4ba;fill-opacity:1" />
    <path
       fill="#ffffff"
       opacity="1"
       d="m 584.12,432.5 c 9.3,-0.01 18.61,0 27.92,0 0.04,36.17 0.01,72.35 0.01,108.53 0.08,1.4 -0.24,4.11 1.88,4.07 3.64,0.26 7.32,0.27 10.97,0.02 2.3,0.15 1.97,-2.59 2.08,-4.09 -0.01,-36.18 -0.02,-72.35 0,-108.53 9.31,0 18.62,-0.01 27.93,0 0.01,38.51 0.01,77.03 0,115.54 -0.1,5.84 -0.72,12.39 -5.02,16.77 -3.94,3.79 -9.76,4.33 -14.96,4.44 -10.62,-0.01 -21.24,0.03 -31.86,-0.02 -5.78,-0.07 -12.46,-1.38 -15.8,-6.62 -3.2,-5.24 -3.19,-11.65 -3.16,-17.59 0.01,-37.51 -0.01,-75.01 0.01,-112.52 z"
       id="path17"
       style="fill:#8da4ba;fill-opacity:1" />
    <path
       fill="#ffffff"
       opacity="1"
       d="m 666.24,432.51 c 8.68,-0.02 17.36,-0.01 26.05,-0.01 4.68,18.29 9.24,36.61 13.98,54.88 -0.02,-18.3 -0.01,-36.59 -0.01,-54.88 9.38,0 18.75,-0.01 28.13,0 0.01,45.58 0.01,91.17 0,136.75 -9.38,0 -18.75,0 -28.13,0 -4.92,-19.06 -9.78,-38.12 -14.71,-57.18 -0.03,19.06 0,38.12 -0.02,57.18 -8.43,0 -16.86,0 -25.29,0 0,-45.58 0,-91.16 0,-136.74 z"
       id="path18"
       style="fill:#8da4ba;fill-opacity:1" />
    <path
       fill="#ffffff"
       opacity="1"
       d="m 752.35,435.29 c 3.06,-2.3 6.96,-2.84 10.7,-2.8 11.59,0.01 23.18,0 34.77,0.01 1.59,8.5 3.16,17 4.72,25.5 -8.59,0.04 -17.17,-0.07 -25.75,0.03 -1.65,-0.16 -3.28,1.03 -2.89,2.81 -0.11,19.39 -0.01,38.78 -0.04,58.17 0.16,7.95 -0.35,15.94 0.25,23.87 0.27,0.19 0.82,0.58 1.09,0.77 9.1,0.26 18.23,0.01 27.34,0.1 -1.63,8.5 -3.26,16.99 -4.89,25.49 -10.89,0.01 -21.78,0.03 -32.67,-0.01 -5.72,-0.06 -12.33,-1.17 -15.82,-6.21 -3.89,-5.89 -3.41,-13.3 -3.44,-20.03 0.03,-31.33 -0.04,-62.66 0.03,-93.99 -0.1,-5.26 1.98,-10.83 6.6,-13.71 z"
       id="path19"
       style="fill:#8da4ba;fill-opacity:1" />
    <path
       fill="#ffffff"
       opacity="1"
       d="m 812,432.5 c 9.31,0 18.62,-0.01 27.93,0 0.01,19.5 0,39 0.01,58.5 4.96,0 9.93,0 14.91,0 0,-19.5 -0.01,-39 0.01,-58.5 9.31,0 18.62,-0.01 27.93,0 0.01,45.58 0,91.17 0,136.75 -9.31,0 -18.62,0 -27.93,0 -0.02,-18.25 0,-36.5 -0.01,-54.75 -4.98,0 -9.94,0 -14.91,0 -0.02,18.25 0.01,36.5 -0.01,54.75 -9.31,0 -18.62,0 -27.93,0 -0.01,-45.58 -0.01,-91.17 0,-136.75 z"
       id="path20"
       style="fill:#8da4ba;fill-opacity:1" />
    <path
       fill="#ffffff"
       opacity="1"
       d="m 894.12,432.5 c 17.96,0.01 35.93,-0.03 53.89,0.02 4.99,0.01 10.56,1.7 13.31,6.18 2.48,3.57 2.85,8.05 2.85,12.27 -0.02,21 0.01,42 -0.01,62.99 -0.05,4.9 -0.69,10.33 -4.36,13.95 -4.15,4.08 -10.26,4.94 -15.82,5.07 -7.56,0.06 -15.12,-0.01 -22.68,0.02 0,12.08 0.01,24.17 0,36.25 -9.06,0 -18.12,0 -27.18,0 -0.01,-45.58 -0.01,-91.17 0,-136.75 m 27.21,77.76 c 4.89,-0.18 9.82,0.31 14.69,-0.25 1.59,0.09 1.36,-1.93 1.51,-2.94 0.03,-15.7 0,-31.41 0.01,-47.11 -0.06,-1.21 -0.06,-3.02 -1.61,-3.27 -4.86,-0.46 -9.75,-0.06 -14.62,-0.19 0.01,17.92 -0.04,35.84 0.02,53.76 z"
       id="path21"
       style="fill:#e8672a;fill-opacity:1" />
    <path
       fill="#ffffff"
       opacity="1"
       d="m 965.87,569.25 c 8.23,-45.59 16.48,-91.17 24.73,-136.75 9.75,0 19.5,-0.01 29.25,0 8.24,45.58 16.5,91.16 24.73,136.75 -9.18,0 -18.36,0 -27.54,0 -0.85,-5.66 -1.66,-11.33 -2.46,-17 -6.24,0 -12.47,0 -18.69,0 -0.84,5.67 -1.64,11.34 -2.49,17 -9.18,-0.01 -18.36,0 -27.53,0 m 39.46,-87.07 c -2.22,16.09 -4.25,32.21 -6.45,48.31 4.22,0.01 8.44,0.01 12.67,0.01 -2.09,-16.11 -4.12,-32.22 -6.22,-48.32 z"
       id="path22"
       style="fill:#e8672a;fill-opacity:1" />
    <path
       fill="#ffffff"
       opacity="1"
       d="m 1052.15,432.5 c 17.27,-0.01 34.55,0.01 51.82,-0.01 4.52,-0.11 9.41,0.59 12.97,3.61 3.88,3.45 5.12,8.85 5.06,13.86 -0.01,33.01 0.02,66.03 -0.02,99.04 -0.18,5.76 -1.01,12.32 -5.6,16.36 -4,3.3 -9.45,3.8 -14.42,3.89 -16.61,0 -33.21,0 -49.81,0 -0.01,-45.58 -0.01,-91.17 0,-136.75 m 27.2,112.76 c 4.98,-0.02 9.96,0 14.95,-0.03 0.79,-3.69 0.47,-7.47 0.51,-11.2 0.01,-24.37 -0.02,-48.74 0.02,-73.11 -0.09,-1.56 0.24,-3.99 -1.87,-4.28 -4.54,-0.36 -9.09,-0.04 -13.62,-0.14 0,29.59 -0.04,59.17 0.01,88.76 z"
       id="path23"
       style="fill:#e8672a;fill-opacity:1" />
  </g>
</svg>
