<?xml version="1.0" encoding="UTF-8" standalone="no"?>
<svg
   width="190.08594pt"
   height="189.91125pt"
   viewBox="0 0 190.08594 189.91125"
   version="1.1"
   id="svg23"
   sodipodi:docname="235559445.svg"
   inkscape:export-filename="..\Documents\Claude\Themestrap-MODX\templates\Launchpad\img\ship.svg"
   inkscape:export-xdpi="96"
   inkscape:export-ydpi="96"
   inkscape:version="1.4.4 (dcaf3e7, 2026-05-05)"
   xmlns:inkscape="http://www.inkscape.org/namespaces/inkscape"
   xmlns:sodipodi="http://sodipodi.sourceforge.net/DTD/sodipodi-0.dtd"
   xmlns="http://www.w3.org/2000/svg"
   xmlns:svg="http://www.w3.org/2000/svg">
  <defs
     id="defs23" />
  <sodipodi:namedview
     id="namedview23"
     pagecolor="#505050"
     bordercolor="#eeeeee"
     borderopacity="1"
     inkscape:showpageshadow="0"
     inkscape:pageopacity="0"
     inkscape:pagecheckerboard="0"
     inkscape:deskcolor="#505050"
     inkscape:document-units="pt"
     inkscape:zoom="0.60525"
     inkscape:cx="879.80173"
     inkscape:cy="666.66667"
     inkscape:window-width="1920"
     inkscape:window-height="1009"
     inkscape:window-x="1912"
     inkscape:window-y="-8"
     inkscape:window-maximized="1"
     inkscape:current-layer="svg23">
    <inkscape:page
       x="0"
       y="-1.2563155e-20"
       width="190.08594"
       height="189.91125"
       id="page2"
       margin="0"
       bleed="0" />
  </sodipodi:namedview>
  <g
     id="#f36f10ff"
     style="display:inline"
     transform="translate(-198.15405,-405.07873)">
    <path
       fill="#f36f10"
       opacity="1"
       d="m 198.28,405.28 c 16.79,-1.2 33.71,3.01 48.22,11.45 11.29,6.13 20.96,14.73 30.33,23.4 4.97,5.71 10.53,10.88 15.27,16.79 12.95,15.27 24.41,31.7 36.42,47.69 0.12,0.26 0.35,0.77 0.47,1.02 -10.03,10.21 -20.16,20.34 -30.37,30.37 -23.52,-17.03 -47.58,-33.81 -67.75,-54.88 -11.16,-11.3 -20.59,-24.51 -26.73,-39.19 -4.79,-11.57 -6.49,-24.2 -5.86,-36.65 m 9.94,9.95 c -0.2,18.39 9.11,35.24 20.5,49.07 8.62,10.05 18.47,18.96 28.41,27.67 10.6,-7.75 19.64,-17.66 28.11,-27.72 -10.21,-11.23 -20.25,-22.83 -32.36,-32.1 -12.76,-9.84 -28.25,-17.13 -44.66,-16.92 m 56.69,82.81 c 10.57,8.87 21.62,17.19 32.73,25.37 6.23,-6.34 12.54,-12.6 18.85,-18.86 -8.13,-11.16 -16.67,-22.01 -25.33,-32.75 -7.99,9.47 -16.76,18.27 -26.25,26.24 z"
       id="path9"
       style="fill:#e8672a;fill-opacity:1" />
    <path
       fill="#f36f10"
       opacity="1"
       d="m 237.34,433.39 c 5.56,-2.05 12.08,-0.82 16.72,2.8 7.14,5.78 8.76,17.35 2.79,24.53 -6.75,9.54 -23.46,8.93 -28.87,-1.69 -5.85,-9.03 -1.21,-22.73 9.36,-25.64 m -1.82,12.86 c -0.72,3.18 -0.94,7.01 1.82,9.32 3.78,4.23 11.44,2.58 13.14,-2.84 2.32,-5.29 -2.91,-11.9 -8.6,-10.64 -2.79,0.03 -4.65,2.28 -6.36,4.16 z"
       id="path10"
       style="display:inline;fill:#e8672a;fill-opacity:1" />
    <path
       fill="#f36f10"
       opacity="1"
       d="m 314.76,447 c -2.04,-5.75 4.2,-12.33 10.04,-10.74 2.4,0.58 4.32,2.25 6.09,3.89 9.53,9.48 18.94,19.07 28.55,28.47 -4.2,4.07 -8.29,8.26 -12.44,12.38 -1.96,-1.95 -3.91,-3.91 -5.85,-5.86 -5.92,5.87 -11.79,11.8 -17.72,17.68 -6.21,-7.86 -12.13,-15.95 -18.47,-23.72 6.15,-3.91 12.52,-7.45 18.68,-11.35 -3.08,-3.46 -7.1,-6.33 -8.88,-10.75 z"
       id="path11"
       style="fill:#e8672a;fill-opacity:1" />
    <path
       fill="#f36f10"
       opacity="1"
       d="m 358.12,478.14 c 4.89,-2.08 9.7,1.35 13.34,4.33 7.93,7.4 12.48,17.51 16.78,27.28 -8.08,-3.06 -15.99,-6.91 -22.75,-12.35 -4.04,-3.71 -8.51,-7.73 -9.53,-13.39 -0.25,-2.07 -0.14,-5.02 2.16,-5.87 z"
       id="path12"
       style="fill:#e8672a;fill-opacity:1" />
    <path
       fill="#f36f10"
       opacity="1"
       d="m 250.72,530.79 c 3.69,-6.28 7.63,-12.42 11.09,-18.83 8.21,5.95 16.05,12.39 24.15,18.5 -6.07,5.76 -11.88,11.79 -17.82,17.69 1.96,1.94 3.91,3.89 5.86,5.85 -4.08,3.94 -7.88,8.16 -12.1,11.94 l -0.55,-0.01 c -8.06,-7.68 -15.77,-15.74 -23.7,-23.55 -2.91,-3 -6.29,-5.73 -8.18,-9.53 -2.27,-6.02 4.39,-13.47 10.63,-11.13 4.47,1.73 7.23,5.91 10.62,9.07 z"
       id="path13"
       style="fill:#e8672a;fill-opacity:1" />
    <path
       fill="#f36f10"
       opacity="1"
       d="m 270.48,566.79 c 0.43,-3.42 4.63,-4.68 7.51,-3.72 5.04,1.26 8.54,5.36 11.99,8.95 5.95,6.61 9.15,15.05 12.91,22.97 -9.58,-3.53 -18.98,-8.29 -26.38,-15.44 -3.1,-3.54 -6.26,-7.83 -6.03,-12.76 z"
       id="path14"
       style="fill:#e8672a;fill-opacity:1" />
  </g>
</svg>
