<?xml version="1.0" encoding="UTF-8" standalone="no"?>
<svg
   width="882.80847pt"
   height="176.09338pt"
   viewBox="0 0 882.80847 176.09338"
   version="1.1"
   id="svg20"
   sodipodi:docname="logo.svg"
   inkscape:version="1.4.4 (dcaf3e7, 2026-05-05)"
   xmlns:inkscape="http://www.inkscape.org/namespaces/inkscape"
   xmlns:sodipodi="http://sodipodi.sourceforge.net/DTD/sodipodi-0.dtd"
   xmlns="http://www.w3.org/2000/svg"
   xmlns:svg="http://www.w3.org/2000/svg">
  <sodipodi:namedview
     id="namedview1"
     pagecolor="#505050"
     bordercolor="#eeeeee"
     borderopacity="1"
     inkscape:showpageshadow="0"
     inkscape:pageopacity="0"
     inkscape:pagecheckerboard="0"
     inkscape:deskcolor="#505050"
     inkscape:document-units="pt"
     inkscape:zoom="1.508821"
     inkscape:cx="588.87037"
     inkscape:cy="117.64152"
     inkscape:window-width="1920"
     inkscape:window-height="1009"
     inkscape:window-x="1912"
     inkscape:window-y="-8"
     inkscape:window-maximized="1"
     inkscape:current-layer="#fefeffff" />
  <defs
     id="defs20" />
  <g
     id="#118df0ff"
     transform="translate(-198.07939,-411.95275)">
    <path
       fill="#118df0"
       opacity="1"
       d="m 201.36,418.39 c 5.38,-7.55 17.71,-8.79 24.14,-1.95 2.77,2.44 4.03,5.97 4.87,9.46 23.13,10.45 46.65,20.04 69.82,30.41 3.64,-6.95 5.78,-14.63 9.76,-21.39 2.99,-4.16 8.38,-1.31 11.99,0.33 3.28,1.21 5.03,5.12 3.47,8.33 -3.58,9.17 -7.77,18.09 -11.49,27.21 -1.3,2.54 -2.2,5.94 -5.24,6.89 -1.95,1.05 -4.06,0.1 -5.93,-0.62 -18.29,-8.04 -36.72,-15.72 -55,-23.79 -8.52,-3.52 -16.86,-7.47 -25.46,-10.78 -5.42,2.14 -12.07,2.8 -17.01,-0.84 -7.75,-4.65 -9.54,-16.29 -3.92,-23.26 m 9.01,1.9 c -5.22,2.52 -6.6,10.45 -1.96,14.22 4.7,5.06 14.03,1.33 14.47,-5.4 1.22,-6.54 -6.77,-11.92 -12.51,-8.82 z"
       id="path1"
       style="fill:#e8672a;fill-opacity:1" />
    <path
       fill="#118df0"
       opacity="1"
       d="m 345.53,416.61 c 7.24,-5.26 18.67,-3.02 23.11,4.84 4.29,6.52 2.75,15.81 -3.07,20.88 -2.23,1.78 -4.96,2.72 -7.6,3.69 -10.35,23.53 -20.05,47.34 -30.36,70.89 5.83,2.17 11.47,4.81 17.26,7.08 2.72,1.22 6.36,2.58 6.55,6.11 -0.35,3.72 -1.85,7.37 -3.95,10.46 -2.07,2.75 -5.9,1.85 -8.58,0.63 -9.8,-4.25 -19.64,-8.39 -29.5,-12.48 -2.87,-1.09 -4.32,-4.83 -3.21,-7.61 11.49,-27.54 23.65,-54.82 34.86,-82.47 -4.43,-7.12 -2.49,-17.27 4.49,-22.02 m 6.98,4.99 c -6.22,1.39 -8.68,10.41 -3.67,14.57 4.65,5.14 14.19,1.71 14.6,-5.17 1.18,-5.98 -5.33,-11.17 -10.93,-9.4 z"
       id="path2"
       style="fill:#e8672a;fill-opacity:1" />
    <path
       fill="#118df0"
       opacity="1"
       d="m 256.49,430.99 c 1.34,-5.62 3.2,-11.61 7.2,-15.9 13.46,5.6 26.97,11.15 40.18,17.34 -0.27,5.18 -2.99,9.8 -5.16,14.39 -0.92,2.1 -3.5,1.37 -5.11,0.66 -9.59,-4.08 -19.13,-8.26 -28.73,-12.3 -2.93,-1.11 -5.71,-2.57 -8.38,-4.19 z"
       id="path3"
       style="fill:#ff7d3d;fill-opacity:1" />
    <path
       fill="#118df0"
       opacity="1"
       d="m 219.94,459.98 c 2.25,-2.29 5.66,-1.24 8.22,-0.15 7.72,3.28 15.49,6.44 23.23,9.68 3.36,1.39 7.33,2.4 9.5,5.56 1.3,3.41 -0.87,6.72 -2.11,9.8 -10.68,25.34 -21.04,50.82 -31.71,76.17 3.92,5.49 4.8,13.23 0.91,18.98 -4.7,8.16 -17.04,10.25 -24.03,3.85 -7.71,-5.68 -7.61,-18.24 -0.54,-24.4 2.04,-2.43 6.28,-2.33 7.17,-5.75 9.54,-23.24 19.37,-46.36 28.79,-69.65 -5.78,-2.38 -11.56,-4.76 -17.37,-7.07 -2.91,-1.28 -6.88,-3.07 -6.39,-6.94 0.75,-3.58 1.98,-7.23 4.33,-10.08 m -8.67,103.12 c -3.29,1.15 -5.66,4.45 -5.65,7.94 -0.46,5.37 5.18,10.14 10.42,8.83 5.01,-0.64 7.93,-6.52 6.54,-11.11 -1.36,-4.58 -6.81,-7.28 -11.31,-5.66 z"
       id="path4"
       style="fill:#e8672a;fill-opacity:1" />
    <path
       fill="#118df0"
       opacity="1"
       d="m 350.96,475.73 c 0.58,-1.65 2.09,-3.5 4.06,-2.58 4.57,1.56 9.04,3.51 13.24,5.91 -0.38,2.21 -0.79,4.47 -1.77,6.52 -3.87,8.58 -7.33,17.33 -11.11,25.95 -1.45,3.16 -2.29,6.76 -5,9.14 -4.41,-1.52 -8.71,-3.33 -12.93,-5.29 -1.96,-1.01 -2.22,-3.37 -1.19,-5.17 4.92,-11.48 9.87,-22.96 14.7,-34.48 z"
       id="path5"
       style="fill:#ff7d3d;fill-opacity:1" />
    <path
       fill="#118df0"
       opacity="1"
       d="m 214.75,482.51 c 1.81,-3.31 5.88,-0.39 8.43,0.41 2.93,1.58 8.12,1.85 8.31,6.08 -2.91,7.73 -6.37,15.25 -9.41,22.94 -2.5,5.39 -4.27,11.1 -7.11,16.34 -5.04,-0.62 -9.62,-2.99 -14.18,-5.05 -2.35,-0.9 -1.55,-3.7 -0.84,-5.46 5.16,-11.65 9.63,-23.61 14.8,-35.26 z"
       id="path6"
       style="fill:#ff7d3d;fill-opacity:1" />
    <path
       fill="#118df0"
       opacity="1"
       d="m 254.97,526.74 c 1.19,-3.46 5.52,-5.38 8.8,-3.51 25.33,10.73 50.73,21.3 76.06,32.04 1.95,0.73 3.84,1.85 5.95,2.05 3.68,-0.79 7.39,-2.43 11.21,-1.4 7.5,1.22 13.35,8.45 13.14,16.01 0.07,7.01 -4.94,13.84 -11.82,15.5 -5.5,1.63 -11.61,-0.08 -15.81,-3.88 -2.57,-2.52 -3.84,-6 -4.69,-9.42 -23.47,-9.9 -46.86,-20.01 -70.47,-29.55 -3.13,6.58 -5.6,13.45 -8.68,20.05 -1.11,2.93 -4.69,4.34 -7.52,3.01 -4.11,-1.2 -10.07,-3.16 -9.45,-8.55 4.09,-10.9 9.06,-21.48 13.28,-32.35 m 96.39,36.79 c -5.86,1.57 -8.28,9.74 -3.83,14.03 4.14,5.73 14.62,2.53 15.02,-4.47 1.14,-5.98 -5.44,-11.68 -11.19,-9.56 z"
       id="path7"
       style="fill:#e8672a;fill-opacity:1" />
    <path
       fill="#118df0"
       opacity="1"
       d="m 269.07,553.93 c 0.69,-1.65 2.75,-2.12 4.23,-1.24 11.9,5.08 23.88,9.98 35.77,15.08 1.64,0.54 2.69,2.43 1.93,4.08 -1.4,3.89 -3.03,7.72 -4.73,11.5 -1.18,2.42 -4.18,1.21 -6.02,0.38 -12.11,-5.43 -24.64,-9.91 -36.54,-15.79 0.83,-4.97 2.99,-9.61 5.36,-14.01 z"
       id="path8"
       style="fill:#ff7d3d;fill-opacity:1" />
  </g>
  <g
     id="#fefeffff"
     transform="translate(-198.07939,-411.95275)">
    <path
       fill="#fefeff"
       opacity="1"
       d="m 416.43,434.55 c 2.32,0.06 4.65,0.07 6.98,0.02 -0.18,44.02 -0.12,88.05 -0.03,132.07 -2.33,-0.02 -4.66,-0.01 -6.98,0.05 0.18,-44.05 0.12,-88.09 0.03,-132.14 z"
       id="path9"
       style="fill:#5b6675;fill-opacity:1" />
    <path
       fill="#fefeff"
       opacity="1"
       d="m 457.6,470.21 c 0.73,-1.78 2.96,-1.03 4.42,-1.24 12.07,0.11 24.15,-0.09 36.22,0.1 5.56,0.13 10.67,4.02 12.08,9.44 1.88,7.33 2.16,15.61 -1.36,22.51 -2.15,4.25 -7.02,6.21 -11.56,6.36 -9.39,0.37 -18.79,-0.13 -28.17,0.26 -0.3,8.94 0.77,18 -0.64,26.87 -3.59,-0.01 -7.18,-0.01 -10.76,0 -0.73,-7.82 -0.16,-15.7 -0.33,-23.54 0.14,-5.02 -0.41,-10.1 0.41,-15.08 11.72,-0.33 23.44,-0.05 35.16,-0.13 1.79,0.05 3.48,-0.63 5.16,-1.19 0.32,-0.5 0.96,-1.5 1.28,-2 0.34,-4 1.05,-8.68 -2.37,-11.62 -13,-0.46 -26.01,-0.03 -39.01,-0.24 -0.92,-3.42 -0.78,-7.01 -0.53,-10.5 z"
       id="path10"
       style="fill:#5b6675;fill-opacity:1" />
    <path
       fill="#fefeff"
       opacity="1"
       d="m 528.6,470.19 c 0.3,-0.28 0.89,-0.82 1.19,-1.1 12.77,-0.21 25.55,-0.05 38.33,-0.08 5.37,-0.12 10.88,2.94 12.71,8.17 2.62,7.47 2.59,16.02 -0.55,23.33 -1.69,3.95 -5.85,5.85 -9.76,6.88 2.84,5.34 6.06,10.46 9.05,15.72 1.96,3.56 4.63,6.89 5.21,11.04 -3.95,0.44 -7.94,0.52 -11.9,0.25 -1.12,-0.59 -1.62,-1.81 -2.29,-2.79 -4.53,-8.06 -9.01,-16.16 -13.69,-24.14 -5.55,0.09 -11.1,-0.07 -16.65,0.13 -0.34,8.96 0.73,18.02 -0.64,26.9 -3.6,0 -7.19,0 -10.79,0.01 -0.71,-7.82 -0.15,-15.69 -0.32,-23.53 0.14,-5.03 -0.41,-10.1 0.42,-15.09 11.68,-0.33 23.37,-0.05 35.06,-0.13 1.92,0.05 3.72,-0.68 5.52,-1.24 1.74,-4.35 2.29,-10.04 -1.36,-13.57 -13,-0.46 -26.02,-0.02 -39.02,-0.25 -0.91,-3.43 -0.76,-7.02 -0.52,-10.51 z"
       id="path11"
       style="fill:#5b6675;fill-opacity:1" />
    <path
       fill="#fefeff"
       opacity="1"
       d="m 603.61,478.48 c 2.46,-5.17 7.52,-8.77 13.25,-9.23 7.71,-0.52 15.45,-0.14 23.18,-0.26 5.88,-0.09 12.71,1.36 16.21,6.56 4.71,7.98 3.62,17.61 3.75,26.49 -0.06,9.05 0.81,18.87 -4.21,26.9 -3.02,2.74 -6.55,5.2 -10.78,5.33 -7.65,0.56 -15.34,0.06 -23,0.25 -4.66,0.2 -9.56,-0.42 -13.5,-3.09 -4.29,-3.44 -6.11,-9.02 -6.71,-14.31 -0.86,-9.66 -0.62,-19.37 -0.23,-29.04 0.24,-3.29 1.14,-6.46 2.04,-9.6 m 14.57,2.56 c -2.02,0.57 -4.12,2.07 -4.32,4.33 -1.14,5.79 -0.41,11.75 -0.61,17.61 0.2,5.5 -0.67,11.18 1.02,16.53 0.93,2.76 4.21,3.2 6.73,3.24 6.69,0 13.38,0.02 20.07,0 2.53,-0.05 5.51,-1.09 6.2,-3.82 1.48,-4.85 0.84,-9.99 0.98,-14.98 -0.17,-6.01 0.44,-12.07 -0.51,-18.02 -0.52,-3.09 -3.55,-5.41 -6.66,-5.14 -7.63,0.08 -15.31,-0.39 -22.9,0.25 z"
       id="path12"
       style="fill:#5b6675;fill-opacity:1" />
    <path
       fill="#fefeff"
       opacity="1"
       d="m 684.57,471.73 c 3.67,-2.3 8.14,-2.64 12.37,-2.74 9.72,0.01 19.44,0.02 29.17,0 0.54,0.73 1.1,1.46 1.67,2.2 -0.01,2.93 -0.07,5.87 -0.23,8.8 -1.47,0.44 -2.97,0.84 -4.51,0.78 -9.4,0.02 -18.81,-0.11 -28.21,0.03 -2.23,-0.05 -4.46,1.22 -5.14,3.42 -1.21,3.79 -1.06,7.84 -1.19,11.78 0.08,7.07 -0.29,14.18 0.58,21.22 0.18,3.15 3.17,5.53 6.25,5.45 10.62,0.29 21.27,-0.18 31.9,0.24 0.76,3.69 0.57,7.47 0.28,11.2 -7.48,0.86 -15.03,0.18 -22.53,0.39 -6.23,-0.15 -12.66,0.76 -18.61,-1.59 -2.76,-1.85 -5.54,-3.94 -6.9,-7.08 -2.77,-6.55 -2.62,-13.81 -2.73,-20.78 0.06,-9.04 -0.54,-18.33 2.47,-27.02 1.62,-2.22 2.92,-4.84 5.36,-6.3 z"
       id="path13"
       style="fill:#5b6675;fill-opacity:1" />
    <path
       fill="#fefeff"
       opacity="1"
       d="m 744.59,470.22 c 0.36,-0.34 1.09,-1.03 1.45,-1.37 15.63,-0.17 31.28,-0.17 46.91,0 0.37,0.35 1.1,1.03 1.47,1.37 0.23,3.31 0.04,6.63 0.08,9.96 -16.52,0.77 -33.09,0.08 -49.63,0.35 -0.45,-3.42 -0.58,-6.89 -0.28,-10.31 z"
       id="path14"
       style="fill:#5b6675;fill-opacity:1" />
    <path
       fill="#fefeff"
       opacity="1"
       d="m 811.48,476.03 c -0.29,-3.86 3.63,-7.31 7.41,-7.04 9.07,0.01 18.14,-0.01 27.21,0.02 3.64,-0.03 7.25,0.71 10.59,2.19 8.96,4.62 10.16,15.71 10.28,24.7 -0.23,9.69 1.15,20.03 -3.14,29.08 -2.83,6.41 -10.15,9.5 -16.83,9.52 -9.68,0.01 -19.35,0 -29.02,0.01 -3.53,0.16 -6.61,-3.21 -6.46,-6.68 -0.07,-17.26 0.01,-34.53 -0.04,-51.8 m 11.52,4.72 c 0,14 -0.01,28 0.01,42 7.96,-0.04 15.92,0.06 23.88,-0.03 2.45,0.02 4.49,-1.47 6.45,-2.74 1.27,-3.86 1.9,-7.89 1.89,-11.96 -0.05,-6.93 0.37,-13.91 -0.68,-20.78 -0.36,-2.39 -2.16,-4.07 -3.77,-5.68 -9.13,-1.72 -18.54,-0.39 -27.78,-0.81 z"
       id="path15"
       style="fill:#5b6675;fill-opacity:1" />
    <path
       fill="#fefeff"
       opacity="1"
       d="m 883.75,472.98 c 0.13,-1.3 -0.19,-3.16 1.23,-3.88 3.1,-0.25 6.22,-0.05 9.34,-0.15 0.65,1.27 1.36,2.58 1.2,4.08 -0.02,12.98 -0.04,25.97 -0.01,38.96 0.14,2.94 0.05,6.15 1.85,8.67 2.55,2.5 6.35,2.07 9.62,2.11 5.79,-0.29 11.68,0.49 17.42,-0.38 3.95,-0.62 4.48,-5.14 4.62,-8.36 0.53,-13.98 0.05,-27.99 0.25,-41.98 0,-1.09 0.3,-2.75 1.62,-2.93 3.1,-0.29 6.22,-0.08 9.33,-0.14 1.33,3.88 0.62,8.03 0.78,12.04 -0.16,11.71 0.38,23.43 -0.4,35.12 -0.41,6.17 -2.49,12.91 -8.16,16.19 -5.99,3.05 -12.95,1.96 -19.41,2.17 -6.65,-0.22 -13.63,0.87 -19.95,-1.72 -7.16,-3.65 -9.08,-12.36 -9.27,-19.72 -0.14,-13.36 -0.03,-26.72 -0.06,-40.08 z"
       id="path16"
       style="fill:#5b6675;fill-opacity:1" />
    <path
       fill="#fefeff"
       opacity="1"
       d="m 957.95,480.29 c -0.17,-3.78 -0.74,-7.71 0.62,-11.34 12.82,0.12 25.65,0 38.47,0.05 2.36,0.01 4.68,0.52 6.95,1.15 0.93,0.66 1.88,1.3 2.87,1.93 5.3,5.91 5.68,14.45 4.64,21.93 -0.74,4.06 -2.03,8.52 -5.63,10.97 -1.85,1.4 -4.18,1.82 -6.37,2.31 4.6,7.55 8.93,15.28 13.46,22.87 0.78,1.08 0.71,2.44 0.91,3.71 -3.54,0.91 -7.21,0.71 -10.81,0.6 -1.59,0.15 -2.38,-1.3 -3.02,-2.45 -4.51,-8.23 -9.13,-16.39 -13.79,-24.53 -5.59,0.03 -11.17,0 -16.75,0.01 0.01,7.17 -0.03,14.34 0.03,21.51 -0.02,1.75 0.12,3.6 -0.75,5.21 -3.16,0.51 -6.39,0.38 -9.56,0.19 -0.34,-0.36 -1.02,-1.09 -1.36,-1.45 -0.2,-11.91 -0.17,-23.85 -0.02,-35.76 0.35,-0.34 1.04,-1.02 1.39,-1.36 12.86,-0.51 25.81,0.58 38.65,-0.58 2.48,-3.1 2.54,-7.27 1.74,-10.98 -0.44,-1.74 -1.93,-3.23 -3.76,-3.31 -12.61,-0.8 -25.33,0.52 -37.91,-0.68 z"
       id="path17"
       style="fill:#5b6675;fill-opacity:1" />
    <path
       fill="#fefeff"
       opacity="1"
       d="m 1030.48,470.84 c 0.4,-0.52 1.2,-1.57 1.6,-2.09 15.94,0.21 31.93,-0.41 47.84,0.3 1.83,3.21 0.45,7.35 0.73,10.93 -6.49,1.13 -13.12,0.25 -19.67,0.52 -10.01,-0.25 -20.09,0.53 -30.06,-0.4 -0.46,-3.07 -0.48,-6.17 -0.44,-9.26 z"
       id="path18"
       style="fill:#5b6675;fill-opacity:1" />
    <path
       fill="#fefeff"
       opacity="1"
       d="m 751.51,495.58 c 13.72,-0.23 27.46,0.03 41.19,-0.12 0.39,0.4 1.17,1.18 1.56,1.58 -0.1,3.42 0.51,7.04 -1.01,10.25 -12.33,-0.08 -24.65,-0.05 -36.97,-0.01 -0.21,4.32 -0.58,9.27 3.09,12.37 11.45,1.36 23.06,0.16 34.58,0.68 0.83,4.46 0.84,9.13 0.2,13.62 -1.25,0.73 -2.75,0.49 -4.11,0.58 -8.98,-0.08 -17.95,0.04 -26.93,-0.06 -3.33,-0.02 -6.57,-0.87 -9.65,-2.06 -2.01,-1.46 -4.31,-2.74 -5.44,-5.05 -4.17,-7.37 -3.48,-16.18 -3.53,-24.33 -0.22,-3.87 3.05,-7.55 7.02,-7.45 z"
       id="path19"
       style="fill:#5b6675;fill-opacity:1" />
    <path
       fill="#fefeff"
       opacity="1"
       d="m 1034.29,496.24 c 4.16,-1.12 8.49,-0.69 12.75,-0.74 10.27,0.02 20.55,-0.05 30.82,0.01 1.81,-0.16 2.64,1.94 2.63,3.46 -0.01,2.58 0.47,5.39 -0.78,7.78 -1.45,0.81 -3.2,0.39 -4.76,0.53 -10.85,-0.08 -21.69,0.02 -32.54,-0.06 0.05,4.2 -0.39,8.81 2.61,12.2 4.56,1.24 9.3,0.76 13.96,0.83 6.91,0 13.83,-0.02 20.75,0.02 1.97,4.26 0.71,9.14 0.93,13.68 -5.47,1.15 -11.12,0.3 -16.66,0.55 -8.2,-0.3 -16.74,1.12 -24.55,-2.07 -4.02,-2.27 -6.52,-6.35 -7.48,-10.78 -1.69,-6.46 -1.22,-13.2 -1.17,-19.8 -0.04,-2.41 2.14,-3.9 3.49,-5.61 z"
       id="path20"
       style="fill:#5b6675;fill-opacity:1" />
  </g>
</svg>
