<?xml version="1.0" encoding="UTF-8" standalone="no"?>
<svg
   width="412.10358pt"
   height="103.11834pt"
   viewBox="0 0 412.10358 103.11834"
   version="1.1"
   id="svg3"
   sodipodi:docname="logo-primary.svg"
   inkscape:version="1.4.3 (0d15f75, 2025-12-25)"
   xmlns:inkscape="http://www.inkscape.org/namespaces/inkscape"
   xmlns:sodipodi="http://sodipodi.sourceforge.net/DTD/sodipodi-0.dtd"
   xmlns="http://www.w3.org/2000/svg"
   xmlns:svg="http://www.w3.org/2000/svg">
  <sodipodi:namedview
     id="namedview1"
     pagecolor="#505050"
     bordercolor="#eeeeee"
     borderopacity="1"
     inkscape:showpageshadow="0"
     inkscape:pageopacity="0"
     inkscape:pagecheckerboard="0"
     inkscape:deskcolor="#505050"
     inkscape:document-units="pt"
     inkscape:zoom="3.2321971"
     inkscape:cx="233.12316"
     inkscape:cy="68.838623"
     inkscape:window-width="1920"
     inkscape:window-height="1009"
     inkscape:window-x="1912"
     inkscape:window-y="-8"
     inkscape:window-maximized="1"
     inkscape:current-layer="svg3" />
  <defs
     id="defs3" />
  <g
     id="#2185d0ff"
     transform="translate(-11,-97)">
    <path
       fill="#2185d0"
       opacity="1"
       d="m 40,97 c 6,0 12,0 18,0 0.04,7.75 -0.09,15.51 0.07,23.26 3.89,-8.52 16.62,-9.7 22.72,-3.07 4.54,5.62 2.77,13.3 3.71,19.93 0.02,-7.02 1.21,-14.93 6.98,-19.65 6.41,-5.04 15.33,-5.09 23,-3.72 6.99,1.23 12.49,7.47 13.02,14.52 0.91,-4.7 0.35,-9.52 0.5,-14.27 5.83,0 11.65,0 17.47,0 0.01,2.36 -0.01,4.73 -0.11,7.09 3.73,-8.26 14.94,-10.36 22.28,-5.84 2.14,1.38 3.17,3.77 4.65,5.75 4.44,-10.38 22.69,-11.25 26.85,-0.26 5.69,-4.82 12.99,-9.7 20.8,-7.83 8.32,2.41 13.32,10.1 17.88,16.89 0.05,0.35 0.15,1.06 0.2,1.41 -7.14,4.57 -13.95,9.62 -21.06,14.23 2.07,3.06 3.81,6.48 6.66,8.9 2.36,2.09 6.41,0.5 7.09,-2.43 0.39,-2.95 -1.52,-5.47 -2.86,-7.92 3.75,-2.54 7.47,-5.1 11.23,-7.62 1.33,2.59 3.2,4.93 5.68,6.51 0.38,2.43 0.52,4.88 0.88,7.32 -2.6,0.06 -5.19,0.13 -7.76,0.51 0.3,2.99 0.56,6.03 1.63,8.86 -5.48,5.09 -12.72,9.79 -20.51,8.97 -8.76,-1.61 -13.98,-9.63 -18.94,-16.24 -0.12,5.23 -0.04,10.46 -0.06,15.7 -6,0 -12,0 -18,0 0.01,-11.67 -0.02,-23.33 0.02,-35 -0.04,-1.98 -0.05,-4.13 -1.2,-5.85 -1.46,-1.35 -3.77,-1.5 -5.53,-0.74 -2.1,0.92 -2.17,3.62 -2.29,5.57 -0.01,12.01 0.01,24.01 0,36.02 -6,0 -12,0 -18,0 0.01,-11.66 -0.02,-23.33 0.02,-34.99 -0.03,-1.99 -0.05,-4.15 -1.21,-5.86 -1.44,-1.35 -3.71,-1.48 -5.48,-0.77 -2.12,0.91 -2.21,3.6 -2.32,5.57 -0.03,12.02 0,24.03 -0.01,36.05 -6,0 -12,0 -18,0 -0.07,-4.74 0.23,-9.5 -0.33,-14.21 -0.71,4.62 -2.81,9.41 -6.96,11.92 -6.14,3.77 -13.76,3.74 -20.66,2.76 -5.32,-0.73 -10.48,-3.75 -12.84,-8.7 -2.54,-4.52 -2.44,-9.81 -2.7,-14.82 -0.64,7.67 -0.52,15.36 -0.51,23.05 -6,0 -12,0 -18,0 0,-11.67 -0.01,-23.33 0.01,-35 -0.08,-2.2 -0.01,-4.94 -2.1,-6.31 -1.28,-0.37 -2.56,-0.36 -3.83,0.02 -2.1,1.36 -2.01,4.1 -2.09,6.3 0.02,11.66 0.01,23.33 0.01,34.99 -5.98,0.19 -12.01,-0.47 -17.94,0.51 -5.63,0.5 -11.5,0.99 -16.99,-0.64 -4.54,-1.42 -5.91,-6.59 -6,-10.82 C 16.89,146.7 17.06,136.35 17,126 c -2,0 -4,0 -6,0 0,-4 0,-8 0,-12 2,0 4,0 6,0 0,-5.34 0,-10.67 0,-16 6,0 12,0 18,0 0,5.33 0,10.67 0,16 1.67,0 3.33,0 5,0 0,-5.67 0,-11.33 0,-17 m 64.33,27.54 c -2.85,2.33 -2.23,6.46 -2.35,9.73 3.35,0 6.69,0 10.04,0 -0.05,-2.78 0.23,-5.75 -1.07,-8.31 -1.31,-2.17 -4.51,-2.49 -6.62,-1.42 m 103.11,4.41 c 0.23,3.3 2.24,6.15 4.22,8.67 2.55,-1.96 5.23,-3.71 7.91,-5.47 -1.89,-2.52 -3.47,-5.75 -6.64,-6.86 -2.38,-0.22 -4.71,1.42 -5.49,3.66 M 35,126 c 0.05,9.06 -0.1,18.12 0.06,27.17 -0.03,2.56 2.79,3.64 4.97,3.37 C 39.95,146.36 40.02,136.18 40,126 c -1.67,0 -3.33,0 -5,0 m 67.01,18 c 0.16,3.76 -0.57,7.7 0.72,11.32 1.08,3.07 5.8,3.7 7.72,1.15 1.61,-2.31 1.38,-5.28 1.64,-7.94 5.25,0.05 10.5,-0.11 15.75,0.11 0.13,-1.55 0.15,-3.1 0.2,-4.64 -8.68,0 -17.36,0 -26.03,0 z"
       id="path1"
       style="fill:#ffffff;fill-opacity:1" />
  </g>
  <g
     id="#000000ff"
     transform="translate(-11,-97)">
    <path
       fill="#000000"
       opacity="1"
       d="m 283,98 c 6,0 12,0 18,0 0,5.33 -0.01,10.67 0,16 7.15,0 14.3,0 21.44,0 0.07,3.03 0.04,6.06 -0.12,9.08 1.3,-2.77 2.64,-5.69 5.16,-7.57 2.76,-2.34 6.52,-2.67 9.99,-2.56 0.01,2.36 -0.01,4.72 -0.13,7.08 4.9,-5.54 12.5,-7.4 19.65,-7.03 5.34,0.31 11.31,0.82 15.39,4.72 3.3,3.13 4.32,7.85 4.35,12.24 0.02,9.69 -0.02,19.39 0,29.08 0,3.06 0.49,6.11 1.59,8.97 -5.76,-0.02 -11.52,-0.01 -17.27,-0.01 -0.4,-2.06 -0.76,-4.12 -1.08,-6.19 -4.57,8.4 -17.25,9.48 -23.8,2.96 -3.85,-4.57 -4.17,-11.11 -3.15,-16.75 0.52,-3.63 2.86,-6.86 6.02,-8.67 5.48,-3.22 12.04,-3.36 17.9,-5.52 3.46,-1.17 3.97,-6.07 1.88,-8.65 -2.37,-1.96 -6.96,-1.76 -8.15,1.45 -0.52,1.39 -0.58,2.91 -0.82,4.37 -5.05,0.01 -10.11,-0.02 -15.16,0.02 -0.04,-0.44 -0.12,-1.33 -0.16,-1.77 -3.06,0.22 -6.47,0.21 -8.96,2.29 -2.08,1.85 -2.57,4.78 -2.57,7.42 -0.01,9.68 0.01,19.36 0,29.04 -4.35,0.06 -8.7,-0.1 -13.05,0.04 -6.92,0.77 -14.12,1.79 -20.92,-0.18 -4.52,-1.44 -5.87,-6.6 -5.96,-10.81 -0.18,-10.36 -0.01,-20.73 -0.07,-31.09 -1.28,0.05 -2.54,0.1 -3.81,0.13 0.1,1.31 0.21,2.61 0.31,3.92 -5.11,-0.02 -10.22,-0.01 -15.32,-0.01 0.21,-3.41 -2.41,-7.21 -6.21,-5.86 -3.48,0.4 -4.48,5.55 -1.4,7.19 6.5,3.45 14.74,3.44 20.22,8.84 6.48,6.92 4.72,19.29 -2.94,24.64 -6.42,4.52 -14.85,4.88 -22.34,3.49 -5.04,-0.91 -9.92,-3.89 -12,-8.73 -1.07,-2.83 -1.33,-5.87 -1.63,-8.86 5.2,0.28 10.4,0 15.61,-0.01 0.33,3.2 1.44,7.58 5.53,7.33 4.01,0.48 6.9,-5 3.55,-7.65 -5.3,-3.79 -12.28,-4.03 -17.81,-7.5 -2.48,-1.58 -4.35,-3.92 -5.68,-6.51 -0.49,-1.69 -0.79,-3.43 -1.06,-5.16 -0.05,-0.35 -0.15,-1.06 -0.2,-1.41 0.33,-4.77 2.18,-9.7 6.22,-12.53 6.28,-4.45 14.54,-4.91 21.91,-3.68 4.3,0.65 8.36,2.81 10.91,6.39 0.12,-1.99 0.16,-3.98 0.16,-5.98 1.99,0 3.98,0 5.98,-0.01 0,-5.33 -0.01,-10.66 0,-15.99 m 18,28 c 0.05,9.03 -0.1,18.06 0.06,27.08 -0.12,2.19 2.05,3.37 3.96,3.54 -0.04,-10.21 -0.01,-20.41 -0.02,-30.62 -1.34,0 -2.67,0 -4,0 m 49.85,20.98 c -1.15,2.49 -1.25,5.59 -0.12,8.11 1.52,3.18 6.68,2.82 8.12,-0.26 1.77,-3.94 0.99,-8.42 1.14,-12.61 -3,1.67 -7.18,1.56 -9.14,4.76 z"
       id="path2"
       style="fill:#2185d0;fill-opacity:1" />
    <path
       fill="#000000"
       opacity="1"
       d="m 400.6317,115.54834 c 5.48,-2.67 12.97,-1.73 17.02,3.04 3.07,3.79 4.24,8.69 4.81,13.43 0.88,8.51 1.12,17.27 -1.02,25.62 -1.28,4.89 -4.2,9.93 -9.27,11.59 -6.07,2.29 -14.7,0.61 -16.79,-6.32 -0.67,12.38 -0.1,24.81 -0.29,37.21 -6,0 -12,0 -18,0 -0.01,-28.34 0,-56.67 0,-85 5.82,0 11.64,0 17.47,0 0.01,2.39 -0.03,4.79 -0.1,7.18 1.77,-2.48 3.28,-5.39 6.17,-6.75 m -2.42,11.87 c -3.04,1.6 -2.63,5.7 -3.03,8.6 -0.01,6.01 -0.68,12.23 1.03,18.07 1.02,3.53 6.69,3.51 7.75,0.01 1.38,-4.17 1.04,-8.67 1.15,-13 -0.12,-3.91 0.13,-8.01 -1.3,-11.73 -0.8,-2.25 -3.6,-2.74 -5.6,-1.95 z"
       id="path3"
       style="fill:#2185d0;fill-opacity:1" />
  </g>
</svg>
